<?xml version="1.0" standalone="no"?>
<!DOCTYPE svg PUBLIC "-//W3C//DTD SVG 20010904//EN"
 "http://www.w3.org/TR/2001/REC-SVG-20010904/DTD/svg10.dtd">
<svg version="1.0" xmlns="http://www.w3.org/2000/svg"
 width="360.000000pt" height="241.000000pt" viewBox="0 0 360.000000 241.000000"
 preserveAspectRatio="xMidYMid meet">

<g transform="translate(0.000000,241.000000) scale(0.100000,-0.100000)"
fill="#000000" stroke="none">
<path d="M780 655 l0 -175 50 0 50 0 0 135 0 135 59 0 c52 0 62 -3 80 -26 18
-23 21 -41 21 -135 l0 -109 50 0 50 0 0 123 c0 203 -24 227 -232 227 l-128 0
0 -175z"/>
<path d="M1163 817 c3 -7 28 -86 57 -175 l53 -162 73 0 73 0 55 169 c31 93 56
171 56 175 0 3 -22 6 -49 6 l-49 0 -20 -67 c-11 -38 -28 -95 -37 -128 -10 -33
-20 -63 -24 -68 -4 -4 -24 54 -45 128 l-39 135 -54 0 c-41 0 -54 -3 -50 -13z"/>
<path d="M1580 655 l0 -175 50 0 50 0 0 175 0 175 -50 0 -50 0 0 -175z"/>
<path d="M1740 656 l0 -176 126 0 c140 0 167 8 200 64 25 41 26 167 2 212 -32
58 -59 68 -200 72 l-128 4 0 -176z m228 69 c34 -40 31 -108 -7 -146 -24 -24
-38 -29 -75 -29 l-46 0 0 106 0 107 53 -6 c39 -5 58 -13 75 -32z"/>
<path d="M2140 655 l0 -175 50 0 50 0 0 175 0 175 -50 0 -50 0 0 -175z"/>
<path d="M2352 655 l-70 -175 49 0 c47 0 51 2 60 30 l11 30 84 0 85 0 10 -30
c10 -28 14 -30 64 -30 l53 0 -71 175 -70 175 -68 0 -67 0 -70 -175z m172 18
l26 -73 -60 0 c-33 0 -60 3 -60 8 0 21 54 152 60 145 5 -4 20 -41 34 -80z"/>
<path d="M2730 535 c-7 -8 -10 -25 -6 -39 11 -46 81 -46 92 0 8 31 -11 54 -46
54 -15 0 -33 -7 -40 -15z m69 -9 c9 -11 10 -20 1 -35 -13 -25 -45 -27 -59 -4
-21 38 31 72 58 39z"/>
<path d="M2751 503 c0 -16 3 -22 6 -15 3 8 9 10 16 3 9 -6 12 -2 13 15 1 17
-3 24 -17 24 -14 0 -19 -7 -18 -27z"/>
</g>
</svg>
